<svg width="560" height="884" viewBox="0 0 560 884" fill="none" xmlns="http://www.w3.org/2000/svg">
<path d="M203.353 882.157C217.937 882.157 229.76 870.334 229.76 855.75C229.76 841.166 217.937 829.343 203.353 829.343C188.768 829.343 176.945 841.166 176.945 855.75C176.945 870.334 188.768 882.157 203.353 882.157Z" fill="#6C63FF"/>
<path d="M197.043 869.107C196.536 869.107 196.031 868.963 195.588 868.678C194.813 868.18 194.35 867.333 194.35 866.411V847.356C194.35 846.384 194.851 845.513 195.692 845.026C196.533 844.538 197.538 844.534 198.381 845.017L216.909 855.602C217.791 856.108 218.31 857.051 218.264 858.066C218.218 859.08 217.615 859.972 216.692 860.394L198.165 868.862C197.806 869.026 197.424 869.107 197.043 869.107V869.107Z" fill="white"/>
<path d="M426.588 862.769C429.068 862.924 430.438 859.844 428.562 858.048L428.375 857.306C428.4 857.246 428.425 857.187 428.449 857.128C430.957 851.148 439.456 851.189 441.943 857.178C444.15 862.493 446.96 867.817 447.651 873.438C447.962 875.918 447.822 878.446 447.272 880.88C452.443 869.584 455.164 857.25 455.164 844.845C455.164 841.728 454.993 838.612 454.645 835.503C454.358 832.96 453.962 830.433 453.451 827.929C450.683 814.392 444.69 801.499 436.046 790.731C431.89 788.459 428.425 784.908 426.331 780.652C425.579 779.117 424.99 777.466 424.711 775.783C425.184 775.845 426.494 768.643 426.137 768.201C426.796 767.201 427.976 766.704 428.696 765.728C432.276 760.874 437.208 761.722 439.782 768.317C445.283 771.093 445.336 775.697 441.961 780.125C439.814 782.942 439.519 786.753 437.635 789.769C437.829 790.017 438.03 790.258 438.224 790.506C441.778 795.065 444.852 799.964 447.444 805.112C446.712 799.391 447.793 792.499 449.636 788.056C451.735 782.994 455.668 778.73 459.131 774.354C463.292 769.098 471.823 771.392 472.556 778.055C472.563 778.12 472.57 778.184 472.577 778.249C472.062 778.539 471.558 778.847 471.066 779.173C468.258 781.03 469.228 785.383 472.556 785.897L472.631 785.908C472.445 787.761 472.127 789.599 471.662 791.405C476.105 808.589 466.512 814.848 452.815 815.129C452.513 815.284 452.218 815.439 451.915 815.586C453.303 819.493 454.412 823.502 455.234 827.564C455.97 831.154 456.482 834.782 456.769 838.426C457.125 843.023 457.094 847.644 456.707 852.234L456.73 852.071C457.715 847.016 460.459 842.294 464.444 839.023C470.38 834.146 478.767 832.351 485.172 828.431C488.255 826.544 492.205 828.982 491.667 832.556L491.641 832.728C490.687 833.115 489.757 833.565 488.858 834.069C488.343 834.359 487.839 834.667 487.347 834.993C484.539 836.85 485.509 841.203 488.836 841.717L488.912 841.729C488.966 841.736 489.013 841.744 489.067 841.752C487.431 845.636 485.152 849.241 482.299 852.35C479.52 867.351 467.587 868.774 454.823 864.405H454.815C453.42 870.484 451.381 876.422 448.76 882.082H427.13C427.052 881.842 426.983 881.593 426.913 881.353C428.913 881.477 430.929 881.361 432.898 880.997C431.293 879.027 429.688 877.043 428.083 875.073C428.045 875.035 428.014 874.996 427.983 874.957C427.169 873.949 426.347 872.949 425.533 871.941L425.532 871.94C425.481 868.846 425.852 865.762 426.587 862.77L426.588 862.769V862.769Z" fill="#F2F2F2"/>
<path d="M552.215 586H214.785C211.593 586 209 589.363 209 593.5C209 597.637 211.593 601 214.785 601H552.215C555.407 601 558 597.637 558 593.5C558 589.363 555.407 586 552.215 586Z" fill="#E6E6E6"/>
<path d="M494.056 586.453V600.857H216.179C212.205 600.857 208.977 597.628 208.977 593.655C208.977 589.682 212.205 586.453 216.179 586.453H494.056V586.453Z" fill="#3F3D56"/>
<path d="M339.01 860.876H339.01C337.43 856.805 332.849 854.785 328.777 856.365H328.777C324.745 857.93 322.727 862.439 324.225 866.481L324.106 866.527L329.828 881.271L343.395 876.006C343.844 875.917 344.291 875.791 344.732 875.62H344.732C348.803 874.04 350.823 869.458 349.243 865.387V865.387C347.663 861.316 343.082 859.296 339.01 860.876H339.01L339.01 860.876Z" fill="#FF6584"/>
<path d="M166.287 203.752C172.016 203.752 176.66 199.004 176.66 193.147C176.66 187.291 172.016 182.543 166.287 182.543C160.558 182.543 155.914 187.291 155.914 193.147C155.914 199.004 160.558 203.752 166.287 203.752Z" fill="#3F3D56"/>
<path d="M202.121 203.752C207.85 203.752 212.494 199.004 212.494 193.147C212.494 187.291 207.85 182.543 202.121 182.543C196.392 182.543 191.748 187.291 191.748 193.147C191.748 199.004 196.392 203.752 202.121 203.752Z" fill="#3F3D56"/>
<path d="M237.957 203.752C243.686 203.752 248.33 199.004 248.33 193.147C248.33 187.291 243.686 182.543 237.957 182.543C232.228 182.543 227.584 187.291 227.584 193.147C227.584 199.004 232.228 203.752 237.957 203.752Z" fill="#3F3D56"/>
<path d="M95.0634 873.059L109.298 873.058L116.07 818.151L95.0605 818.153L95.0634 873.059Z" fill="#FFB6B6"/>
<path d="M143.833 872.737C144.276 873.483 144.51 875.892 144.51 876.761C144.51 879.429 142.347 881.592 139.679 881.592H95.595C93.7748 881.592 92.299 880.116 92.299 878.296V876.461C92.299 876.461 90.1183 870.944 94.6081 864.145C94.6081 864.145 100.188 869.469 108.527 861.131L110.986 856.676L128.785 869.694L138.651 870.908C140.809 871.174 142.723 870.867 143.833 872.737H143.833V872.737Z" fill="#2F2E41"/>
<path d="M185.301 826.52L199.178 829.692L218.02 777.677L197.539 772.995L185.301 826.52Z" fill="#FFB6B6"/>
<path d="M232.916 837.078C233.181 837.905 232.872 840.305 232.679 841.152C232.084 843.753 229.493 845.379 226.892 844.784L183.917 834.956C182.143 834.55 181.033 832.783 181.439 831.008L181.848 829.219C181.848 829.219 180.952 823.355 186.845 817.728C186.845 817.728 191.098 824.162 201.085 817.893L204.475 814.099L218.924 830.757L228.271 834.14C230.316 834.88 232.25 835.008 232.915 837.078H232.916V837.078Z" fill="#2F2E41"/>
<path d="M86.2205 567.634L69.5859 590.44L91.0218 838.909H118.582L123.431 717.675L136.634 625.25L205.054 697.27L190.65 788.495L218.257 799.298L249.466 682.866L196.651 595.241L189.449 572.435L86.2205 567.634Z" fill="#2F2E41"/>
<path d="M161.842 369.577H127.429L116.229 383.981L76.618 401.986L82.6197 549.627L69.416 590.439C69.416 590.439 131.833 620.447 189.449 572.434L188.249 529.222L208.655 404.387L172.645 381.58L161.842 369.577Z" fill="#6C63FF"/>
<path d="M38.6753 583.375C39.7258 579.845 41.4865 576.844 43.5646 574.714L51.4477 540.453L67.6409 544.681L57.9008 578.981C58.4764 581.9 58.3103 585.375 57.2598 588.905C54.86 596.97 48.7542 602.269 43.6223 600.742C38.4903 599.215 36.2754 591.439 38.6753 583.375H38.6753Z" fill="#FFB6B6"/>
<path d="M95.1319 404.429L84.5734 399.026C84.5734 399.026 74.4268 399.723 69.7211 409.134C65.0154 418.546 65.0154 486.308 65.0154 486.308L43.3691 564.423L62.192 574.775L87.7806 502.307L95.1319 404.429H95.1319Z" fill="#6C63FF"/>
<path d="M208.998 592.239C208.925 588.557 209.69 585.163 211.022 582.502L208.113 547.466L224.825 546.57L225.977 582.207C227.413 584.813 228.311 588.174 228.384 591.856C228.55 600.269 224.345 607.174 218.992 607.28C213.638 607.385 209.164 600.652 208.998 592.239V592.239V592.239Z" fill="#FFB6B6"/>
<path d="M208.365 404.599L196.664 402.663C196.664 402.663 187.21 406.412 185.589 416.809C183.968 427.205 204.574 491.759 204.574 491.759L207.706 572.756L228.786 576.895L231.126 500.078L208.365 404.599V404.599Z" fill="#6C63FF"/>
<path d="M147.554 363.423C166.09 363.423 181.116 348.397 181.116 329.861C181.116 311.325 166.09 296.299 147.554 296.299C129.018 296.299 113.992 311.325 113.992 329.861C113.992 348.397 129.018 363.423 147.554 363.423Z" fill="#FFB6B6"/>
<path d="M423.062 395.286C431.324 395.286 438.022 388.729 438.022 380.641C438.022 372.553 431.324 365.996 423.062 365.996C414.799 365.996 408.102 372.553 408.102 380.641C408.102 388.729 414.799 395.286 423.062 395.286Z" fill="#6C63FF"/>
<path d="M542.99 385.234H462.465C459.703 385.234 457.455 382.986 457.455 380.223C457.455 377.461 459.703 375.213 462.465 375.213H542.99C545.752 375.213 548 377.461 548 380.223C548 382.986 545.752 385.234 542.99 385.234V385.234Z" fill="#E6E6E6"/>
<path d="M29.8047 603.644C39.0856 603.644 46.6093 596.12 46.6093 586.839C46.6093 577.558 39.0856 570.034 29.8047 570.034C20.5237 570.034 13 577.558 13 586.839C13 596.12 20.5237 603.644 29.8047 603.644Z" fill="#3F3D56"/>
<path d="M38.5462 576.997C37.7455 576.529 36.5227 576.772 36.0828 577.643C34.0853 581.6 32.088 585.557 30.0906 589.514C28.4793 586.99 26.4179 584.786 24.0266 582.939C23.2564 582.344 22.0095 582.822 21.5632 583.585C21.0192 584.515 21.437 585.452 22.2091 586.048C24.9976 588.202 27.148 591.098 28.5958 594.293C29.1461 595.508 31.1307 595.431 31.7051 594.293C34.2008 589.349 36.6965 584.405 39.1921 579.461C39.6301 578.593 39.4214 577.509 38.5462 576.997L38.5462 576.997Z" fill="white"/>
<path d="M529.293 421.192H306.154C291.89 421.192 280.285 409.588 280.285 395.324V286.216C280.285 271.952 291.89 260.348 306.154 260.348H529.293C543.557 260.348 555.162 271.952 555.162 286.216V395.324C555.162 409.588 543.557 421.192 529.293 421.192V421.192ZM306.154 262.748C293.213 262.748 282.686 273.276 282.686 286.216V395.324C282.686 408.264 293.213 418.792 306.154 418.792H529.293C542.233 418.792 552.761 408.264 552.761 395.324V286.216C552.761 273.276 542.233 262.748 529.293 262.748H306.154V262.748Z" fill="#E6E6E6"/>
<path d="M184.996 308.248C176.245 308.943 177.445 304.759 177.445 304.759L178.232 297.636C178.005 296.403 177.577 295.407 176.728 294.927C174.731 293.797 172.703 295.933 170.588 295.044C168.658 294.233 166.722 293.42 164.701 292.875C162.135 292.183 160.888 294.95 158.239 295.157C155.734 295.352 151.842 292.932 149.4 293.527C147.251 294.051 150.059 290.718 147.436 290.355L139.034 295.157C139.034 295.157 135.823 297.956 135.433 295.157C128.576 296.26 123.213 291.468 120.943 303.126C119.507 310.5 112.154 314.524 110.196 321.776C107.406 332.107 112.143 341.057 118.404 348.221C119.952 349.992 117.507 353.091 118.635 355.154C119.684 357.072 122.054 357.972 123.123 359.878C124.038 361.508 125.69 358.795 126.749 360.336C127.663 361.665 124.217 362.353 125.83 362.375C126.622 362.387 128.659 362.549 129.431 362.375C132.354 362.564 130.061 362.446 132.503 362.599C133.568 356.392 129.408 354.604 127.236 348.693C126.512 346.721 125.611 344.799 125.168 342.745C124.725 340.691 124.789 338.425 125.897 336.64C127.593 333.909 131.544 333.068 134.423 334.497C137.303 335.925 139 339.217 138.978 342.431C141.466 340.323 143.414 337.656 144.784 334.709L143.835 329.966C143.835 329.966 144.949 330.878 145.903 331.849C147.649 326.395 147.521 320.323 145.17 315.09C146.398 314.12 155.394 318.021 163.041 319.756V319.163L169.042 320.364C174.975 321.44 176.581 322.911 175.044 316.763C174.542 314.755 177.445 323.965 182.246 321.564C185.254 320.06 181.662 317.19 183.622 314.456C184.896 312.679 185.285 310.431 184.996 308.247L184.996 308.248Z" fill="#2F2E41"/>
<path d="M499.955 504.776H265.793V505.977H499.955V504.776Z" fill="#3F3D56"/>
<path d="M333.248 439.371L323.369 434.691C327.421 440.346 330.912 449.177 332.781 456.204C335.946 449.658 341.048 441.649 346.098 436.864L335.657 439.55C342.09 408.02 366.288 385.384 393.998 385.384V382.984C365.055 382.984 339.817 406.567 333.248 439.371Z" fill="#3F3D56"/>
<path d="M378.715 487.412H316.297C313.65 487.412 311.496 485.258 311.496 482.611C311.496 479.963 313.65 477.809 316.297 477.809H378.715C381.362 477.809 383.516 479.963 383.516 482.611C383.516 485.258 381.362 487.412 378.715 487.412Z" fill="#6C63FF"/>
</svg>
