<svg width="126" height="22" viewBox="0 0 126 22" fill="none" xmlns="http://www.w3.org/2000/svg">
<path d="M3.96557 20.9124H0L7.21937 2.64371C7.98198 0.728716 9.37162 0 11.5408 0C13.6761 0 15.0658 0.728716 15.8114 2.64371L22.7597 20.9124H18.7602L12.5237 4.38924C12.3882 3.94862 11.9814 3.66052 11.5239 3.69442C11.0663 3.67747 10.6426 3.94862 10.4901 4.38924L3.96557 20.9124Z" fill="#00204C"/>
<path d="M25.4542 0.372803L31.6907 16.913C31.8263 17.3536 32.233 17.6417 32.6906 17.6078C33.182 17.6078 33.4871 17.3875 33.6904 16.913L40.2319 0.372803H44.2144L36.9612 18.6415C36.1986 20.5565 34.792 21.2852 32.6736 21.2852C30.6569 21.2852 29.1148 20.6413 28.3522 18.6415L21.5056 0.372803H25.4542Z" fill="#00204C"/>
<path d="M46.9429 20.9124H42.9773L50.1967 2.64371C50.9593 0.728716 52.3659 0 54.5351 0C56.6704 0 58.06 0.728716 58.7887 2.64371L65.7369 20.9124H61.7375L55.501 4.37229C55.3655 3.93167 54.9587 3.64358 54.5012 3.67747C54.0436 3.66052 53.6199 3.93167 53.4674 4.37229L46.9429 20.9124Z" fill="#00204C"/>
<path d="M80.6841 0.372803V3.96554H74.6849V20.9294H71.0583V3.96554H65.0591V0.372803H80.6841Z" fill="#00204C"/>
<path d="M100.478 0.372803V3.96554H90.1911C88.0219 3.96554 87.0899 4.96541 87.0899 6.55841C87.0899 8.23615 88.1575 8.99876 90.225 8.99876H100.325V12.2526H90.1234C88.0558 12.2526 86.9882 13.066 86.9882 14.7438C86.9882 16.3537 87.988 17.3366 90.0895 17.3366H100.495V20.9294H90.0895C85.2088 20.9294 83.2429 18.5229 83.2429 15.3199C83.2429 12.9813 84.3106 11.3883 86.1917 10.6087C84.2767 9.81221 83.2938 8.23615 83.2938 5.98222C83.2938 2.69452 85.3274 0.38975 90.1742 0.38975L100.478 0.372803Z" fill="#00204C"/>
<path d="M107.206 20.9124H103.24L110.46 2.64371C111.222 0.728716 112.629 0 114.781 0C116.917 0 118.306 0.728716 119.052 2.64371L126 20.9124H122.001L115.764 4.37229C115.629 3.93167 115.222 3.64358 114.764 3.67747C114.307 3.66052 113.883 3.93167 113.731 4.37229L107.206 20.9124Z" fill="#00204C"/>
</svg>
