<svg id="Warstwa_1" data-name="Warstwa 1" xmlns="http://www.w3.org/2000/svg" xmlns:xlink="http://www.w3.org/1999/xlink" viewBox="0 0 542.1 81.04"><defs><style>.cls-1{fill:#292e42;}.cls-2{fill:url(#Gradient_bez_nazwy_4);}</style><linearGradient id="Gradient_bez_nazwy_4" y1="40.52" x2="106.05" y2="40.52" gradientUnits="userSpaceOnUse"><stop offset="0" stop-color="#5fa8b4"/><stop offset="1" stop-color="#c4b081"/></linearGradient></defs><path class="cls-1" d="M167.76,9.87A13.67,13.67,0,0,0,155,18.5L134.36,70.07h11.76l19-47.52a2.82,2.82,0,0,1,5.23,0l19,47.52h11.75L180.51,18.5A13.68,13.68,0,0,0,167.76,9.87Z"/><path class="cls-1" d="M304.22,9.87a13.67,13.67,0,0,0-12.75,8.63L270.82,70.07h11.76l19-47.52a2.82,2.82,0,0,1,5.23,0l19,47.52h11.76L317,18.5A13.68,13.68,0,0,0,304.22,9.87Z"/><path class="cls-1" d="M508.7,9.87A13.68,13.68,0,0,0,496,18.5L475.3,70.07h11.76l19-47.52a2.82,2.82,0,0,1,5.23,0l19,47.52H542.1L521.45,18.5A13.67,13.67,0,0,0,508.7,9.87Z"/><path class="cls-1" d="M238.89,58.53a2.82,2.82,0,0,1-5.23,0L214.63,11H202.88l20.65,51.57a13.73,13.73,0,0,0,25.5,0L269.67,11H257.91Z"/><path class="cls-1" d="M411,26.36V54.78A15.37,15.37,0,0,0,426.4,70.13h32.18V59.71H426.4a4.94,4.94,0,0,1-4.94-4.93V45.23h37.12V34.81H421.46V26.36a4.94,4.94,0,0,1,4.94-4.93h32.18V11H426.4A15.37,15.37,0,0,0,411,26.36Z"/><path class="cls-2" d="M94.29,20.83l-19,47.52a2.82,2.82,0,0,1-5.23,0l-3.26-8.14h0L46.15,8.63a13.73,13.73,0,0,0-25.5,0L0,60.21H11.76l19-47.53a2.82,2.82,0,0,1,5.23,0l3.26,8.15h0L59.91,72.41a13.73,13.73,0,0,0,25.5,0l20.64-51.58Z"/><polygon class="cls-1" points="395.44 11.01 343.15 11.01 343.15 21.43 364.09 21.43 364.09 70.07 374.51 70.07 374.51 21.43 395.44 21.43 395.44 11.01"/></svg>