<svg width="81" height="111" viewBox="0 0 81 111" fill="none" xmlns="http://www.w3.org/2000/svg">
<g opacity="0.6" filter="url(#filter0_b_37_538)">
<path d="M77.5467 79.6687L48.7592 63.0515C47.1209 62.1154 45.7947 59.6189 45.7947 57.4345V2.82423C45.7947 0.639824 47.1209 -0.374374 48.7592 0.561802L77.5467 17.1789C79.185 18.1151 80.5112 20.6116 80.5112 22.796V77.4062C80.5112 79.6687 79.185 80.6049 77.5467 79.6687Z" fill="url(#paint0_linear_37_538)" fill-opacity="0.2"/>
</g>
<path d="M78.7169 80.2928C78.3269 80.2928 77.8588 80.1368 77.3907 79.9027L48.5252 63.2856C46.8089 62.2714 45.4827 59.6969 45.4827 57.4345V2.82424C45.4827 1.57601 45.8727 0.63983 46.6529 0.249756C47.277 -0.140317 48.0571 -0.0623047 48.8373 0.405783L77.7027 17.0229C79.4191 18.0371 80.7453 20.6116 80.7453 22.874V77.4843C80.7453 78.7325 80.3552 79.6687 79.5751 80.0588C79.341 80.2148 79.029 80.2928 78.7169 80.2928ZM77.7027 79.5126C78.3269 79.9027 78.9509 79.9027 79.419 79.6687C79.9651 79.3566 80.3552 78.5765 80.3552 77.4843V22.874C80.3552 20.7676 79.107 18.3492 77.5467 17.413L48.6813 0.795857C48.0572 0.405783 47.433 0.405786 46.9649 0.63983C46.4188 0.951888 46.0288 1.73204 46.0288 2.82424V57.4345C46.0288 59.5409 47.277 61.9594 48.8373 62.8955L77.7027 79.5126Z" fill="url(#paint1_linear_37_538)"/>
<g opacity="0.6" filter="url(#filter1_b_37_538)">
<path d="M3.27656 79.6687L32.142 63.0515C33.7803 62.1154 35.1065 59.6189 35.1065 57.4345V2.82423C35.1065 0.639824 33.7803 -0.374374 32.142 0.561802L3.27656 17.1789C1.63825 18.1151 0.312012 20.6116 0.312012 22.796V77.4062C0.312012 79.6687 1.63825 80.6049 3.27656 79.6687Z" fill="url(#paint2_linear_37_538)" fill-opacity="0.2"/>
</g>
<path d="M2.02839 80.2928C1.71633 80.2928 1.40426 80.2148 1.17022 80.0588C0.468088 79.6687 0 78.6545 0 77.4843V22.874C0 20.6116 1.40428 17.9591 3.04259 17.0229L31.908 0.405783C32.6882 -0.0623047 33.4683 -0.140317 34.0924 0.249756C34.7946 0.63983 35.2626 1.65402 35.2626 2.82424V57.4345C35.2626 59.6969 33.8584 62.3494 32.2201 63.2856L3.35465 79.9027C2.88656 80.1368 2.49647 80.2928 2.02839 80.2928ZM33.2343 0.483803C32.9222 0.483803 32.5321 0.561813 32.2201 0.795857L3.35465 17.413C1.79435 18.3492 0.546112 20.7676 0.546112 22.874V77.4843C0.546112 78.5765 0.85818 79.3566 1.4823 79.6687C1.95039 79.9027 2.57449 79.9027 3.19861 79.5126L32.064 62.8955C33.6243 61.9594 34.8726 59.5409 34.8726 57.4345V2.82424C34.8726 1.73204 34.5605 0.951888 33.9364 0.63983C33.7023 0.4838 33.4683 0.483803 33.2343 0.483803Z" fill="#03A7D3"/>
<path d="M39.6312 110.797C38.2269 110.797 36.8227 110.484 35.8085 109.86L9.9076 94.8815C8.81539 94.2574 8.26929 93.3993 8.26929 92.5411C8.26929 91.6049 8.89341 90.8248 9.9076 90.2006L35.7305 75.2218C37.8369 73.9736 41.3475 73.9736 43.4539 75.2218L69.3548 90.2006C70.447 90.8248 70.9931 91.6829 70.9931 92.5411C70.9931 93.4773 70.369 94.2574 69.3548 94.8815L43.5319 109.86C42.4397 110.484 41.0355 110.797 39.6312 110.797ZM39.4752 74.7537C38.1489 74.7537 36.8227 75.0658 35.8865 75.6119L10.0636 90.5907C9.12746 91.1368 8.65936 91.839 8.65936 92.5411C8.65936 93.2432 9.12746 93.9454 10.0636 94.4915L35.9645 109.47C37.9929 110.64 41.1915 110.64 43.2199 109.47L69.0427 94.4915C69.9789 93.9454 70.447 93.2432 70.447 92.5411C70.447 91.839 69.9009 91.1368 69.0427 90.5907L43.1419 75.6119C42.1277 75.0658 40.8014 74.7537 39.4752 74.7537Z" fill="#03A7D3"/>
<path d="M70.837 84.3498V71.9455L55.1561 74.0519L43.3759 67.2646C41.3475 66.0944 37.9928 66.0944 35.8864 67.2646L34.0921 68.4348L8.5813 71.8675V84.4279V84.5059C8.5813 85.286 9.1274 85.9881 10.1416 86.6123L36.0425 101.591C38.0709 102.761 41.4255 102.761 43.5319 101.591L69.3548 86.6123C70.2909 85.9101 70.837 85.208 70.837 84.3498Z" fill="url(#paint3_linear_37_538)"/>
<path d="M69.2766 69.6829L43.3758 54.7041C41.3474 53.5339 37.9928 53.5339 35.8864 54.7041L10.0635 69.6829C8.03514 70.8531 8.03514 72.8035 10.0635 73.9737L36.0424 88.9525C38.0708 90.1227 41.4254 90.1227 43.5318 88.9525L69.3547 73.9737C71.3831 72.8035 71.383 70.8531 69.2766 69.6829Z" fill="url(#paint4_radial_37_538)"/>
<path d="M69.2768 73.2716L43.4539 88.2505C41.4255 89.4207 38.0709 89.4207 35.9645 88.2505L10.0636 73.2716C9.20549 72.8035 8.73738 72.1794 8.58135 71.4773C8.42532 72.4135 8.89343 73.3496 10.0636 73.9738L36.0425 88.9526C38.0709 90.1228 41.4255 90.1228 43.5319 88.9526L69.3548 73.9738C70.525 73.2716 71.0711 72.3355 70.8371 71.4773C70.681 72.1014 70.1349 72.7255 69.2768 73.2716Z" fill="#00204C"/>
<path d="M46.9644 92.3071L45.7942 93.0092V91.605L46.9644 90.9028V92.3071Z" fill="#00204C"/>
<path d="M49.5389 90.8252L48.3687 91.5273V90.123L49.5389 89.4209V90.8252Z" fill="#00204C"/>
<path d="M52.1135 89.3427L50.8652 90.0449V88.6406L52.1135 87.9385V89.3427Z" fill="#00204C"/>
<path d="M50.0069 93.3994L48.8367 94.1015V92.6972L50.0069 91.9951V93.3994Z" fill="#00204C"/>
<path d="M52.2696 92.1512L51.0994 92.8533V91.4491L52.2696 90.6689V92.1512Z" fill="#00204C"/>
<path d="M60.383 84.5837L59.1348 85.2858V83.8816L60.383 83.1794V84.5837Z" fill="#00204C"/>
<path d="M67.4044 80.527L66.2341 81.2291V79.8248L67.4044 79.0447V80.527Z" fill="#00204C"/>
<path d="M54.6879 87.8603L53.4397 88.5625V87.1582L54.6879 86.4561V87.8603Z" fill="#00204C"/>
<path opacity="0.4" d="M38.2268 82.6332L20.7515 72.5693C20.0494 72.1792 20.1274 71.4771 20.9856 71.009L38.0708 61.1791C38.8509 60.711 40.0992 60.633 40.8013 61.1011L58.2766 71.165C58.9787 71.5551 58.9007 72.2572 58.0425 72.7253L40.9573 82.5551C40.1772 83.0232 38.9289 83.1012 38.2268 82.6332Z" fill="#06033E"/>
<path d="M31.3618 93.5554L16.929 85.2078C16.617 84.9738 16.3049 84.5057 16.3049 84.0376V82.9454C16.3049 82.4773 16.617 82.2433 16.929 82.4773L31.3618 90.8249C31.6738 91.0589 31.9859 91.527 31.9859 91.9951V93.0873C31.9859 93.5554 31.7518 93.7894 31.3618 93.5554Z" fill="#00204C"/>
<path d="M70.837 61.0232V48.6188L55.1561 50.7252L43.3759 43.938C41.3475 42.7677 37.9928 42.7677 35.8864 43.938L34.0921 45.1082L8.5813 48.5408V61.1012V61.1792C8.5813 61.9594 9.1274 62.6615 10.1416 63.2856L36.0425 78.2644C38.0709 79.4346 41.4255 79.4346 43.5319 78.2644L69.3548 63.2856C70.2909 62.5835 70.837 61.8814 70.837 61.0232Z" fill="url(#paint5_linear_37_538)"/>
<path d="M69.2767 46.3565L43.3758 31.3777C41.3474 30.2074 37.9928 30.2074 35.8864 31.3777L10.0635 46.3565C8.03514 47.5267 8.03514 49.4771 10.0635 50.6473L35.9644 65.6261C37.9928 66.7963 41.3474 66.7963 43.4538 65.6261L69.2767 50.6473C71.3831 49.4771 71.3831 47.5267 69.2767 46.3565Z" fill="url(#paint6_radial_37_538)"/>
<path opacity="0.4" d="M56.9504 47.2147L41.8155 38.477C40.6453 37.7749 38.6949 37.7749 37.4467 38.477L22.3899 47.2147C21.2197 47.9168 21.2197 49.009 22.3899 49.7111L37.6027 58.5268C38.773 59.2289 40.7233 59.2289 41.9716 58.5268L57.0284 49.7892C58.1206 49.087 58.1206 47.9168 56.9504 47.2147Z" fill="#06033E"/>
<path d="M69.2768 49.945L43.4539 64.9238C41.4255 66.094 38.0709 66.094 35.9645 64.9238L10.0636 49.945C9.20549 49.4769 8.73738 48.8528 8.58135 48.1506C8.42532 49.0868 8.89343 50.023 10.0636 50.6471L35.9645 65.6259C37.9929 66.7962 41.3475 66.7962 43.4539 65.6259L69.2768 50.6471C70.447 49.945 70.9931 49.0088 70.759 48.1506C70.681 48.7748 70.1349 49.3989 69.2768 49.945Z" fill="#00204C"/>
<path d="M46.9644 68.9807L45.7942 69.6828V68.2785L46.9644 67.5764V68.9807Z" fill="#00204C"/>
<path d="M49.5389 67.4985L48.3687 68.2006V66.7964L49.5389 66.0942V67.4985Z" fill="#00204C"/>
<path d="M52.1132 66.0163L50.865 66.7185V65.3142L52.1132 64.6121V66.0163Z" fill="#00204C"/>
<path d="M50.0069 70.073L48.8367 70.7751V69.3708L50.0069 68.6687V70.073Z" fill="#00204C"/>
<path d="M52.2693 68.8248L51.0991 69.527V68.1227L52.2693 67.3425V68.8248Z" fill="#00204C"/>
<path d="M60.383 61.2573L59.1348 61.9594V60.5552L60.383 59.853V61.2573Z" fill="#00204C"/>
<path d="M67.4041 57.2005L66.2339 57.9027V56.4984L67.4041 55.7183V57.2005Z" fill="#00204C"/>
<path d="M54.6879 64.5339L53.4397 65.236V63.8318L54.6879 63.1296V64.5339Z" fill="#00204C"/>
<path d="M70.837 37.697V25.2927L55.1561 27.3991L43.3759 20.6118C41.3475 19.4416 37.9928 19.4416 35.8864 20.6118L34.0921 21.782L8.5813 25.2147V37.775V37.853C8.5813 38.6332 9.1274 39.3353 10.1416 39.9594L36.0425 54.9383C38.0709 56.1085 41.4255 56.1085 43.5319 54.9383L69.3548 39.9594C70.2909 39.2573 70.837 38.5552 70.837 37.697Z" fill="url(#paint7_linear_37_538)"/>
<path d="M69.2767 23.0301L43.3758 8.05125C41.3474 6.88103 37.9928 6.88103 35.8864 8.05125L10.0635 23.0301C8.03514 24.2003 8.03514 26.1507 10.0635 27.3209L35.9644 42.2997C37.9928 43.4699 41.3474 43.4699 43.4538 42.2997L69.2767 27.3209C71.3831 26.1507 71.3831 24.2003 69.2767 23.0301Z" fill="url(#paint8_radial_37_538)"/>
<path d="M69.2768 26.6188L43.4539 41.5976C41.4255 42.7678 38.0709 42.7678 35.9645 41.5976L10.0636 26.6188C9.20549 26.1507 8.73738 25.5266 8.58135 24.8245C8.42532 25.7606 8.89343 26.6968 10.0636 27.3209L35.9645 42.2997C37.9929 43.47 41.3475 43.47 43.4539 42.2997L69.2768 27.3209C70.447 26.6188 70.9931 25.6826 70.759 24.8245C70.681 25.4486 70.1349 26.0727 69.2768 26.6188Z" fill="#00204C"/>
<path d="M46.9644 45.6543L45.7942 46.3564V44.9521L46.9644 44.25V45.6543Z" fill="#00204C"/>
<path d="M49.5389 44.1718L48.3687 44.874V43.4697L49.5389 42.7676V44.1718Z" fill="#00204C"/>
<path d="M52.1135 42.6897L50.8652 43.3918V41.9875L52.1135 41.2854V42.6897Z" fill="#00204C"/>
<path d="M50.0069 46.7465L48.8367 47.4487V46.0444L50.0069 45.3423V46.7465Z" fill="#00204C"/>
<path d="M52.2696 45.4982L51.0994 46.2003V44.796L52.2696 44.0159V45.4982Z" fill="#00204C"/>
<path d="M60.383 37.9306L59.1348 38.6328V37.2285L60.383 36.5264V37.9306Z" fill="#00204C"/>
<path d="M67.4044 33.8741L66.2341 34.5763V33.172L67.4044 32.3918V33.8741Z" fill="#00204C"/>
<path d="M54.6879 41.2075L53.4397 41.9096V40.5053L54.6879 39.8032V41.2075Z" fill="#00204C"/>
<path d="M31.3616 70.7751L17.0069 62.4276C16.6949 62.1935 16.3828 61.7254 16.3828 61.2573V60.1651C16.3828 59.697 16.6949 59.463 17.0069 59.697L31.4397 68.0446C31.7517 68.2787 32.0638 68.7468 32.0638 69.2148V70.307C31.9858 70.7751 31.7517 70.9312 31.3616 70.7751Z" fill="#00204C"/>
<path d="M31.3618 47.9167L16.929 39.5692C16.617 39.3351 16.3049 38.867 16.3049 38.3989V37.3067C16.3049 36.8386 16.617 36.6046 16.929 36.8386L31.3618 45.2642C31.6738 45.4983 31.9859 45.9664 31.9859 46.4344V47.5266C31.9859 47.9167 31.7518 48.1508 31.3618 47.9167Z" fill="#00204C"/>
<defs>
<filter id="filter0_b_37_538" x="-70.2053" y="-115.787" width="266.717" height="311.816" filterUnits="userSpaceOnUse" color-interpolation-filters="sRGB">
<feFlood flood-opacity="0" result="BackgroundImageFix"/>
<feGaussianBlur in="BackgroundImage" stdDeviation="58"/>
<feComposite in2="SourceAlpha" operator="in" result="effect1_backgroundBlur_37_538"/>
<feBlend mode="normal" in="SourceGraphic" in2="effect1_backgroundBlur_37_538" result="shape"/>
</filter>
<filter id="filter1_b_37_538" x="-115.688" y="-115.787" width="266.794" height="311.816" filterUnits="userSpaceOnUse" color-interpolation-filters="sRGB">
<feFlood flood-opacity="0" result="BackgroundImageFix"/>
<feGaussianBlur in="BackgroundImage" stdDeviation="58"/>
<feComposite in2="SourceAlpha" operator="in" result="effect1_backgroundBlur_37_538"/>
<feBlend mode="normal" in="SourceGraphic" in2="effect1_backgroundBlur_37_538" result="shape"/>
</filter>
<linearGradient id="paint0_linear_37_538" x1="37.1155" y1="12.4072" x2="96.4531" y2="61.2165" gradientUnits="userSpaceOnUse">
<stop stop-color="#FF0EFF"/>
<stop offset="0.305911" stop-color="#8A6FFF"/>
<stop offset="0.563339" stop-color="#8620FF"/>
<stop offset="0.782626" stop-color="#CD15FF"/>
<stop offset="1" stop-color="#2EA4E7"/>
</linearGradient>
<linearGradient id="paint1_linear_37_538" x1="80.7453" y1="0" x2="42.4237" y2="1.48752" gradientUnits="userSpaceOnUse">
<stop stop-color="#FF0EFF"/>
<stop offset="0.474733" stop-color="#8620FF"/>
<stop offset="1" stop-color="#31E5FF"/>
</linearGradient>
<linearGradient id="paint2_linear_37_538" x1="-8.38662" y1="12.4072" x2="50.9765" y2="61.3472" gradientUnits="userSpaceOnUse">
<stop stop-color="#FF0EFF"/>
<stop offset="0.305911" stop-color="#8A6FFF"/>
<stop offset="0.563339" stop-color="#8620FF"/>
<stop offset="0.782626" stop-color="#CD15FF"/>
<stop offset="1" stop-color="#2EA4E7"/>
</linearGradient>
<linearGradient id="paint3_linear_37_538" x1="4.80781" y1="84.3708" x2="48.7374" y2="84.3708" gradientUnits="userSpaceOnUse">
<stop stop-color="#01C8EF"/>
<stop offset="0.1297" stop-color="#04B1DD"/>
<stop offset="0.5466" stop-color="#0E6BA7"/>
<stop offset="0.8476" stop-color="#154085"/>
<stop offset="1" stop-color="#172F78"/>
</linearGradient>
<radialGradient id="paint4_radial_37_538" cx="0" cy="0" r="1" gradientUnits="userSpaceOnUse" gradientTransform="translate(-2.98193 51.4295) scale(98.1038)">
<stop stop-color="#01C8EF"/>
<stop offset="0.1396" stop-color="#03BAE4"/>
<stop offset="0.4033" stop-color="#0895C8"/>
<stop offset="0.76" stop-color="#115A9A"/>
<stop offset="1" stop-color="#172F78"/>
</radialGradient>
<linearGradient id="paint5_linear_37_538" x1="4.80781" y1="61.0443" x2="48.7374" y2="61.0443" gradientUnits="userSpaceOnUse">
<stop stop-color="#01C8EF"/>
<stop offset="0.1297" stop-color="#04B1DD"/>
<stop offset="0.5466" stop-color="#0E6BA7"/>
<stop offset="0.8476" stop-color="#154085"/>
<stop offset="1" stop-color="#172F78"/>
</linearGradient>
<radialGradient id="paint6_radial_37_538" cx="0" cy="0" r="1" gradientUnits="userSpaceOnUse" gradientTransform="translate(-2.98193 28.1033) scale(98.1038)">
<stop stop-color="#01C8EF"/>
<stop offset="0.1396" stop-color="#03BAE4"/>
<stop offset="0.4033" stop-color="#0895C8"/>
<stop offset="0.76" stop-color="#115A9A"/>
<stop offset="1" stop-color="#172F78"/>
</radialGradient>
<linearGradient id="paint7_linear_37_538" x1="4.80781" y1="37.7185" x2="48.7374" y2="37.7185" gradientUnits="userSpaceOnUse">
<stop stop-color="#01C8EF"/>
<stop offset="0.1297" stop-color="#04B1DD"/>
<stop offset="0.5466" stop-color="#0E6BA7"/>
<stop offset="0.8476" stop-color="#154085"/>
<stop offset="1" stop-color="#172F78"/>
</linearGradient>
<radialGradient id="paint8_radial_37_538" cx="0" cy="0" r="1" gradientUnits="userSpaceOnUse" gradientTransform="translate(-2.98193 4.77713) scale(98.1038)">
<stop stop-color="#01C8EF"/>
<stop offset="0.1396" stop-color="#03BAE4"/>
<stop offset="0.4033" stop-color="#0895C8"/>
<stop offset="0.76" stop-color="#115A9A"/>
<stop offset="1" stop-color="#172F78"/>
</radialGradient>
</defs>
</svg>
